<svg width="1440" height="63" viewBox="0 0 1440 63" fill="none" xmlns="http://www.w3.org/2000/svg">
<path opacity="0.25" d="M0 0V24.3022C57.348 35.9572 124.308 41.1915 189.6 39.0022C274.032 36.183 353.196 21.5145 437.76 19.3147C526.368 17.0257 614.808 28.1768 699.6 37.8262C782.724 47.2762 865.56 50.8882 950.88 44.6932C994.26 41.5432 1034.7 35.3272 1076.22 29.2897C1187.39 13.125 1335.6 -7.50225 1440 27.5467V0H0Z" fill="#EEF0F6"/>
<path opacity="0.5" d="M0 0V8.30025C15.6 19.383 33.168 29.8515 57.228 37.8262C119.292 58.4167 198 58.275 269.496 48.0795C306.876 42.7507 341.604 34.3927 377.1 27.1845C426.204 17.2095 478.776 3.0345 534.096 1.10775C577.608 -0.3885 619.176 6.05325 652.416 17.6767C690.54 31.0065 727.2 50.2267 776.772 56.0017C825.3 61.6665 874.392 52.4895 919.728 43.2547C965.064 34.02 1009.92 22.7797 1060.03 20.6535C1131.71 17.5822 1195.97 32.6655 1262.71 41.0445C1298.95 45.591 1333.51 44.2837 1367.22 37.107C1394.14 31.3897 1424.82 22.9687 1440 11.256V0H0Z" fill="#EEF0F6"/>
<path d="M0 0V2.95575C179.916 30.975 376.908 37.443 570.996 22.3492C622.596 18.3382 672.072 11.7862 724.128 8.45775C794.928 3.927 859.104 14.8837 922.8 27.0427C993.516 40.5405 1063.2 50.001 1141.44 47.25C1245.28 43.575 1348.39 23.2522 1440 2.72475V0H0Z" fill="#EEF0F6"/>
</svg>
