<svg width="3966" height="173" viewBox="0 0 3966 173" fill="none" xmlns="http://www.w3.org/2000/svg">
<path opacity="0.25" d="M0 0V66.7348C157.946 98.7398 342.365 113.113 522.19 107.101C754.73 99.3597 972.761 59.0795 1205.66 53.0389C1449.71 46.7533 1693.28 77.3743 1926.82 103.872C2155.75 129.822 2383.9 139.741 2618.88 122.729C2738.36 114.079 2849.74 97.0098 2964.09 80.4306C3270.26 36.0417 3678.47 -20.6014 3966 75.6443V0H0Z" fill="#EEF0F6"/>
<path opacity="0.5" d="M0 0V22.7927C42.965 53.2263 91.3502 81.9732 157.615 103.872C328.55 160.414 545.325 160.025 742.237 132.028C845.188 117.395 940.834 94.4436 1038.6 74.6495C1173.84 47.2578 1318.63 8.33283 1470.99 3.04192C1590.83 -1.06683 1705.31 16.6224 1796.86 48.5409C1901.86 85.1448 2002.83 137.924 2139.36 153.783C2273.01 169.338 2408.22 144.138 2533.08 118.779C2657.95 93.42 2781.49 62.5539 2919.5 56.7152C3116.91 48.2814 3293.9 89.7005 3477.72 112.709C3577.53 125.194 3672.71 121.605 3765.55 101.897C3839.68 86.1972 3924.19 63.0729 3966 30.9093V0H0Z" fill="#EEF0F6"/>
<path d="M0 0V8.11658C495.519 85.0583 1038.07 102.82 1572.62 61.3717C1714.73 50.3574 1851 32.3654 1994.37 23.2252C2189.36 10.7837 2366.12 40.8712 2541.55 74.2602C2736.31 111.325 2928.23 137.304 3143.72 129.75C3429.7 119.658 3713.7 63.8514 3966 7.48225V0H0Z" fill="#EEF0F6"/>
</svg>
