<?xml version="1.0" encoding="UTF-8"?>
<svg id="Camada_1" xmlns="http://www.w3.org/2000/svg" version="1.1" viewBox="0 0 4503 197">
  <!-- Generator: Adobe Illustrator 29.6.1, SVG Export Plug-In . SVG Version: 2.1.1 Build 9)  -->
  <defs>
    <style>
      .st0 {
        opacity: .25;
      }

      .st0, .st1 {
        fill: #093067;
        isolation: isolate;
      }

      .st1 {
        opacity: .5;
      }

      .st2 {
        fill: #144391;
      }
    </style>
  </defs>
  <path class="st0" d="M4503,197v-75.99c-179.33-36.44-388.72-52.81-592.89-45.97-264.03,8.82-511.58,54.68-776.02,61.56-277.09,7.16-553.65-27.71-818.8-57.88-259.93-29.55-518.97-40.84-785.77-21.47-135.65,9.85-262.11,29.29-391.95,48.17C789.94,155.96,326.47,220.46,0,110.86v86.14s4503,0,4503,0Z"/>
  <path class="st1" d="M4503,197v-25.96c-48.78-34.65-103.72-67.39-178.96-92.33-194.08-64.39-440.2-63.94-663.78-32.06-116.89,16.66-225.48,42.8-336.48,65.34-153.56,31.19-317.95,75.52-490.94,81.54-136.07,4.68-266.05-15.46-370-51.81-119.22-41.68-233.86-101.78-388.87-119.84-151.75-17.71-305.27,10.98-447.04,39.86-141.77,28.88-282.03,64.02-438.74,70.67-224.13,9.6-425.08-37.56-633.8-63.76-113.32-14.22-221.4-10.13-326.8,12.31C143.42,98.84,47.47,125.18,0,161.8v35.2s4503,0,4503,0Z"/>
  <path class="st2" d="M4503,197v-9.24c-562.61-87.62-1178.62-107.84-1785.55-60.64-161.36,12.54-316.08,33.03-478.86,43.44-221.4,14.17-422.08-20.09-621.26-58.11-221.14-42.21-439.05-71.79-683.71-63.19C608.92,60.74,286.47,124.29,0,188.48v8.52s4503,0,4503,0Z"/>
</svg>