<svg width="123" height="105" viewBox="0 0 123 105" fill="none" xmlns="http://www.w3.org/2000/svg">
<g clip-path="url(#clip0_23_2847)">
<path d="M100.171 39.8882C102.853 37.7959 104.914 35.1878 105.253 31.5079C105.606 27.5169 103.882 23.3622 100.998 20.634C94.7491 14.7332 85.5313 16.8661 79.9908 22.4501C79.2849 14.6648 73.1606 8.05452 64.9241 7.70369C55.2822 7.2879 43.8177 13.912 41.2847 23.5865C37.8375 18.7744 30.1862 18.8431 25.7132 22.7343C21.9256 26.0187 21.3125 31.5685 23.9273 35.1668C16.4602 35.1513 8.8297 39.2761 6.36501 46.6966C3.31047 55.9308 12.2517 60.0844 19.8882 60.8727C15.5006 66.0398 13.9188 75.5004 18.4483 80.5827C24.3898 87.2672 33.717 82.5326 39.1751 77.371C36.3504 86.0729 42.4245 95.708 52.1986 96.3252C61.3407 96.9101 67.8222 89.736 68.221 81.5166C72.8524 85.1483 81.0592 85.8385 85.8903 84.739C91.2749 83.5186 95.9269 77.6524 94.0225 72.8648C104.02 75.9507 115.023 69.37 116.587 58.4513C117.883 49.4238 109.523 38.907 100.152 39.8754L100.171 39.8882ZM91.9278 70.0606C91.6304 69.8147 91.3216 69.5774 90.9718 69.344C89.5697 68.4305 87.9084 70.4506 89.3245 71.4065C92.625 73.6399 92.1394 78.0461 89.1912 80.433C86.6331 82.5032 82.9612 82.6612 79.8595 82.3774C75.9294 82.0224 69.4358 81.1594 67.8121 76.9386C67.7008 76.4573 67.5698 75.9731 67.4176 75.4959C66.9579 74.0841 64.6461 74.6845 64.8863 76.1449C64.9595 76.6105 65.078 77.0423 65.2276 77.4686C67.2384 85.7286 61.4249 94.2036 52.4199 93.6489C42.8338 93.0594 38.4861 83.1624 42.0544 74.9033C42.3927 74.1141 41.1966 73.3117 40.7084 74.089C40.6287 74.2188 40.5574 74.36 40.4777 74.4898C40.1745 74.2835 39.7604 74.2126 39.3987 74.4728C34.2843 78.1889 25.7596 85.9928 20.1639 78.3988C16.4897 73.4119 18.6049 64.2419 23.543 60.7627C24.6152 60.0004 23.795 58.566 22.6706 58.5827C18.7501 58.6436 14.3995 58.3987 11.2535 55.7331C6.77553 51.9521 8.2843 46.2913 11.7299 42.5827C16.0504 37.9414 22.7618 36.6329 28.6837 38.2912C30.0228 38.6699 30.7124 36.3151 29.3648 35.9251C22.6197 33.9538 24.1307 25.9383 29.4391 23.2412C33.4806 21.1868 38.3521 22.0136 40.8712 25.8505C40.8698 25.8604 40.8669 25.8802 40.8654 25.8901C40.698 27.4422 43.0795 27.8123 43.2795 26.2447C44.42 17.5178 53.5881 11.183 61.9515 10.188C71.1483 9.09307 78.7939 16.1492 77.6465 25.5422C77.5192 26.6151 79.0165 27.4314 79.6979 26.4399C83.6794 20.5965 92.2266 16.7681 98.5203 21.675C101.105 23.692 102.758 26.9569 102.955 30.2203C103.251 34.9535 99.8584 38.023 96.3946 40.6172C96.0769 40.8535 96.0304 41.1701 96.1424 41.4392C96.0255 42.0285 96.4909 42.7134 97.249 42.7136C106.5 42.6272 115.645 48.0035 113.721 58.6974C111.838 69.175 101.212 73.3246 91.9377 70.062L91.9278 70.0606Z" fill="#093067"/>
</g>
<defs>
<clipPath id="clip0_23_2847">
<rect width="110.97" height="89.67" fill="white" transform="translate(13.0328) rotate(8.35707)"/>
</clipPath>
</defs>
</svg>
